<svg xmlns="http://www.w3.org/2000/svg" viewBox="0 0 20 20" fill="none">
    <path fill-rule="evenodd" clip-rule="evenodd" d="M6.0059 4.82739C5.68046 4.50195 5.15283 4.50195 4.82739 4.82739C4.50195 5.15283 4.50195 5.68046 4.82739 6.0059L8.82147 9.99998L4.82739 13.9941C4.50195 14.3195 4.50195 14.8471 4.82739 15.1726C5.15283 15.498 5.68046 15.498 6.0059 15.1726L9.99998 11.1785L13.9941 15.1726C14.3195 15.498 14.8471 15.498 15.1726 15.1726C15.498 14.8471 15.498 14.3195 15.1726 13.9941L11.1785 9.99998L15.1726 6.0059C15.498 5.68046 15.498 5.15283 15.1726 4.82739C14.8471 4.50195 14.3195 4.50195 13.9941 4.82739L9.99998 8.82147L6.0059 4.82739Z" fill="currentColor"/>
</svg>
